<?xml version="1.0" encoding="utf-8"?>
<!-- Generator: Adobe Illustrator 14.0.0, SVG Export Plug-In . SVG Version: 6.00 Build 43363)  -->
<!DOCTYPE svg PUBLIC "-//W3C//DTD SVG 1.0//EN" "http://www.w3.org/TR/2001/REC-SVG-20010904/DTD/svg10.dtd">
<svg version="1.0" id="Layer_1" xmlns="http://www.w3.org/2000/svg" xmlns:xlink="http://www.w3.org/1999/xlink" x="0px" y="0px"
	 width="83.622px" height="100px" viewBox="0 0 83.622 100" enable-background="new 0 0 83.622 100" xml:space="preserve">
<polygon points="83.622,29.29 83.622,0 54.333,0 54.333,12.082 44.374,12.082 44.374,0.395 39.248,0.395 39.248,47.635 
	29.29,47.635 29.29,35.553 0,35.553 0,64.842 29.29,64.842 29.29,52.76 39.248,52.76 39.248,100 44.374,100 44.374,87.918 
	54.333,87.918 54.333,100 83.622,100 83.622,70.71 54.333,70.71 54.333,82.792 44.374,82.792 44.374,17.208 54.333,17.208 
	54.333,29.29 "/>
</svg>
