<?xml version="1.0" encoding="utf-8"?>
<!-- Generator: Adobe Illustrator 14.0.0, SVG Export Plug-In . SVG Version: 6.00 Build 43363)  -->
<!DOCTYPE svg PUBLIC "-//W3C//DTD SVG 1.0//EN" "http://www.w3.org/TR/2001/REC-SVG-20010904/DTD/svg10.dtd">
<svg version="1.0" id="Layer_1" xmlns="http://www.w3.org/2000/svg" xmlns:xlink="http://www.w3.org/1999/xlink" x="0px" y="0px"
	 width="100px" height="74.94px" viewBox="0 0 100 74.94" enable-background="new 0 0 100 74.94" xml:space="preserve">
<path d="M55.996,68.947c0,3.311-2.685,5.993-5.996,5.993c-3.311,0-5.996-2.683-5.996-5.993c0-3.313,2.685-5.999,5.996-5.999
	C53.312,62.948,55.996,65.634,55.996,68.947z"/>
<path d="M30.508,51.251l8.476,8.477c2.821-2.823,6.719-4.571,11.016-4.571s8.195,1.748,11.016,4.571l8.476-8.477
	C64.498,46.259,57.604,43.166,50,43.166S35.502,46.259,30.508,51.251z"/>
<path d="M15.255,35.998l8.474,8.477c6.73-6.731,16.023-10.9,26.271-10.9s19.542,4.169,26.272,10.9l8.474-8.477
	C75.844,27.096,63.554,21.583,50,21.583S24.156,27.096,15.255,35.998z"/>
<path d="M50,11.991c16.197,0,30.887,6.589,41.523,17.228L100,20.745C87.19,7.935,69.505,0,50,0S12.81,7.935,0,20.745l8.475,8.474
	C19.112,18.58,33.801,11.991,50,11.991z"/>
</svg>
